<mxfile host="app.diagrams.net" modified="2023-11-16T11:33:04.388Z" agent="Mozilla/5.0 (Windows NT 10.0; Win64; x64) AppleWebKit/537.36 (KHTML, like Gecko) Chrome/119.0.0.0 Safari/537.36" etag="ka7ytdX5oC377ogjwA4Q" version="22.1.2" type="github">
  <diagram name="Página-1" id="RCEBO4_55bhPXPiaisOr">
    <mxGraphModel dx="2074" dy="1144" grid="1" gridSize="10" guides="1" tooltips="1" connect="1" arrows="1" fold="1" page="1" pageScale="1" pageWidth="827" pageHeight="1169" math="0" shadow="0">
      <root>
        <mxCell id="0" />
        <mxCell id="1" parent="0" />
        <mxCell id="zuOBPA3GGNfVyxOtIFOT-1" value="" style="rounded=0;whiteSpace=wrap;html=1;" vertex="1" parent="1">
          <mxGeometry x="14" y="30" width="800" height="1110" as="geometry" />
        </mxCell>
        <mxCell id="zuOBPA3GGNfVyxOtIFOT-67" value="" style="group" vertex="1" connectable="0" parent="1">
          <mxGeometry x="48.870000000000005" y="610" width="810" height="510" as="geometry" />
        </mxCell>
        <mxCell id="zuOBPA3GGNfVyxOtIFOT-68" value="&lt;div style=&quot;text-align: justify;&quot;&gt;&lt;br&gt;&lt;/div&gt;&lt;div style=&quot;text-align: justify;&quot;&gt;&lt;br&gt;&lt;/div&gt;&lt;div style=&quot;text-align: justify;&quot;&gt;ASIGNATURA (#cod_asignatura, #dni_profesor, #fecha_imparte)&lt;/div&gt;&lt;div style=&quot;text-align: justify;&quot;&gt;&lt;br&gt;&lt;/div&gt;&lt;div style=&quot;text-align: justify;&quot;&gt;&lt;br&gt;&lt;/div&gt;&lt;div style=&quot;text-align: justify;&quot;&gt;ALUMNO (#dni_alumno, nombre)&lt;/div&gt;&lt;div style=&quot;text-align: justify;&quot;&gt;&lt;br&gt;&lt;/div&gt;&lt;div style=&quot;text-align: justify;&quot;&gt;PROFESOR (#dni_profesor, nombre)&lt;/div&gt;&lt;div style=&quot;text-align: justify;&quot;&gt;&lt;br&gt;&lt;/div&gt;&lt;div style=&quot;text-align: justify;&quot;&gt;MATRICULA (#dni_alumno, #cod_asignatura, fecha, nota)&lt;/div&gt;" style="text;html=1;align=center;verticalAlign=middle;resizable=1;points=[];autosize=1;strokeColor=none;fillColor=none;movable=1;rotatable=1;deletable=1;editable=1;locked=0;connectable=1;container=0;" vertex="1" parent="zuOBPA3GGNfVyxOtIFOT-67">
          <mxGeometry x="35" y="1.9245283018867925" width="370" height="153.96226415094338" as="geometry" />
        </mxCell>
        <mxCell id="zuOBPA3GGNfVyxOtIFOT-75" value="ASIGNATURA" style="text;html=1;strokeColor=none;fillColor=none;align=center;verticalAlign=middle;whiteSpace=wrap;rounded=0;fontSize=9;container=0;" vertex="1" parent="zuOBPA3GGNfVyxOtIFOT-67">
          <mxGeometry x="200" y="153.96226415094338" width="88.25" height="19.245283018867923" as="geometry" />
        </mxCell>
        <mxCell id="zuOBPA3GGNfVyxOtIFOT-103" value="" style="endArrow=none;dashed=1;html=1;rounded=0;exitX=0;exitY=0;exitDx=0;exitDy=0;entryX=1;entryY=0;entryDx=0;entryDy=0;" edge="1" parent="zuOBPA3GGNfVyxOtIFOT-67" source="zuOBPA3GGNfVyxOtIFOT-75" target="zuOBPA3GGNfVyxOtIFOT-75">
          <mxGeometry width="50" height="50" relative="1" as="geometry">
            <mxPoint x="141.75" y="146.26415094339623" as="sourcePoint" />
            <mxPoint x="186.75" y="146.26415094339623" as="targetPoint" />
          </mxGeometry>
        </mxCell>
        <mxCell id="zuOBPA3GGNfVyxOtIFOT-108" value="PROFESOR" style="text;html=1;strokeColor=none;fillColor=none;align=center;verticalAlign=middle;whiteSpace=wrap;rounded=0;fontSize=9;container=0;" vertex="1" parent="zuOBPA3GGNfVyxOtIFOT-67">
          <mxGeometry x="226.63" y="57.735849056603776" width="79.63" height="19.245283018867923" as="geometry" />
        </mxCell>
        <mxCell id="zuOBPA3GGNfVyxOtIFOT-109" value="" style="endArrow=none;dashed=1;html=1;rounded=0;exitX=0;exitY=0;exitDx=0;exitDy=0;entryX=1;entryY=0;entryDx=0;entryDy=0;" edge="1" parent="zuOBPA3GGNfVyxOtIFOT-67" source="zuOBPA3GGNfVyxOtIFOT-108" target="zuOBPA3GGNfVyxOtIFOT-108">
          <mxGeometry width="50" height="50" relative="1" as="geometry">
            <mxPoint x="407.12" y="191.49056603773585" as="sourcePoint" />
            <mxPoint x="452.12" y="191.49056603773585" as="targetPoint" />
          </mxGeometry>
        </mxCell>
        <mxCell id="zuOBPA3GGNfVyxOtIFOT-73" value="ALUMNO" style="text;html=1;strokeColor=none;fillColor=none;align=center;verticalAlign=middle;whiteSpace=wrap;rounded=0;fontSize=9;container=0;" vertex="1" parent="zuOBPA3GGNfVyxOtIFOT-67">
          <mxGeometry x="130" y="153.96226415094338" width="44.87" height="19.245283018867923" as="geometry" />
        </mxCell>
        <mxCell id="zuOBPA3GGNfVyxOtIFOT-74" value="" style="endArrow=none;dashed=1;html=1;rounded=0;exitX=0;exitY=0;exitDx=0;exitDy=0;entryX=1;entryY=0;entryDx=0;entryDy=0;" edge="1" parent="zuOBPA3GGNfVyxOtIFOT-67" source="zuOBPA3GGNfVyxOtIFOT-73" target="zuOBPA3GGNfVyxOtIFOT-73">
          <mxGeometry width="50" height="50" relative="1" as="geometry">
            <mxPoint x="67.66999999999996" y="144.33962264150944" as="sourcePoint" />
            <mxPoint x="145.56999999999994" y="143.37735849056605" as="targetPoint" />
          </mxGeometry>
        </mxCell>
        <mxCell id="zuOBPA3GGNfVyxOtIFOT-15" value="EJER. 16 -&amp;nbsp; UNIVERSIDAD" style="text;html=1;align=center;verticalAlign=middle;resizable=0;points=[];autosize=1;strokeColor=#36393d;fillColor=#cce5ff;fontStyle=1;fontSize=12;" vertex="1" parent="zuOBPA3GGNfVyxOtIFOT-67">
          <mxGeometry y="-510" width="170" height="30" as="geometry" />
        </mxCell>
        <mxCell id="zuOBPA3GGNfVyxOtIFOT-114" value="&lt;div style=&quot;&quot;&gt;&lt;div style=&quot;text-align: justify;&quot;&gt;&lt;br&gt;&lt;/div&gt;&lt;div style=&quot;text-align: justify;&quot;&gt;&lt;span style=&quot;font-size: 13px;&quot;&gt;&lt;br&gt;&lt;/span&gt;&lt;/div&gt;&lt;b&gt;&lt;div style=&quot;text-align: justify;&quot;&gt;&lt;b style=&quot;background-color: initial;&quot;&gt;Se desea diseñar una base de datos para una Universidad que contenga información&lt;/b&gt;&lt;/div&gt;&lt;font style=&quot;font-size: 12px;&quot;&gt;&lt;div style=&quot;text-align: justify;&quot;&gt;&lt;b style=&quot;background-color: initial;&quot;&gt;sobre los Alumnos, las Asignaturas y los Profesores.&amp;nbsp;&lt;/b&gt;&lt;/div&gt;&lt;/font&gt;&lt;/b&gt;&lt;/div&gt;&lt;div style=&quot;text-align: justify;&quot;&gt;&lt;b&gt;&lt;font style=&quot;font-size: 12px;&quot;&gt;&lt;br&gt;&lt;/font&gt;&lt;/b&gt;&lt;/div&gt;&lt;div style=&quot;&quot;&gt;&lt;div style=&quot;text-align: justify;&quot;&gt;&lt;b style=&quot;background-color: initial;&quot;&gt;Construir un modelo E/R teniendo&lt;/b&gt;&lt;/div&gt;&lt;b&gt;&lt;div style=&quot;text-align: justify;&quot;&gt;&lt;b style=&quot;background-color: initial;&quot;&gt;en cuenta las siguientes restricciones:&lt;/b&gt;&lt;/div&gt;&lt;/b&gt;&lt;ul&gt;&lt;li&gt;&lt;div style=&quot;text-align: justify;&quot;&gt;&lt;span style=&quot;background-color: initial;&quot;&gt;Una asignatura puede estar impartida por muchos profesores (no a la vez) ya que&amp;nbsp;&lt;/span&gt;&lt;span style=&quot;background-color: initial;&quot;&gt;puede existir grupos.&amp;nbsp;&lt;/span&gt;&lt;/div&gt;&lt;/li&gt;&lt;li style=&quot;text-align: justify;&quot;&gt;Un profesor puede dar clases de muchas asignaturas.&amp;nbsp;&lt;/li&gt;&lt;li&gt;&lt;div style=&quot;text-align: justify;&quot;&gt;&lt;span style=&quot;background-color: initial;&quot;&gt;Se necesita tener constancia de las asignaturas en las que está matriculado un&amp;nbsp;&lt;/span&gt;&lt;span style=&quot;background-color: initial;&quot;&gt;alumno, la nota obtenida y el profesor que le ha calificado.&amp;nbsp;&lt;/span&gt;&lt;/div&gt;&lt;/li&gt;&lt;li&gt;&lt;div style=&quot;text-align: justify;&quot;&gt;&lt;span style=&quot;background-color: initial;&quot;&gt;También es necesario tener constancia de las asignaturas que imparten todos los&amp;nbsp;&lt;/span&gt;&lt;span style=&quot;background-color: initial;&quot;&gt;profesores(independientemente de si tienen algún alumno matriculado en su&amp;nbsp;&lt;/span&gt;&lt;span style=&quot;background-color: initial;&quot;&gt;grupo).&amp;nbsp;&lt;/span&gt;&lt;/div&gt;&lt;/li&gt;&lt;li style=&quot;text-align: justify;&quot;&gt;No existen asignaturas con el mismo nombre.&lt;/li&gt;&lt;li&gt;&lt;div style=&quot;text-align: justify;&quot;&gt;&lt;span style=&quot;background-color: initial;&quot;&gt;Un alumno no puede estar matriculado en la misma asignatura con dos profesores&amp;nbsp;&lt;/span&gt;&lt;span style=&quot;background-color: initial;&quot;&gt;distintos.&amp;nbsp;&lt;/span&gt;&lt;/div&gt;&lt;/li&gt;&lt;/ul&gt;&lt;/div&gt;" style="text;html=1;strokeColor=none;fillColor=none;spacing=5;spacingTop=-20;whiteSpace=wrap;overflow=hidden;rounded=0;align=left;" vertex="1" parent="zuOBPA3GGNfVyxOtIFOT-67">
          <mxGeometry y="192.45" width="740" height="230.94" as="geometry" />
        </mxCell>
        <mxCell id="zuOBPA3GGNfVyxOtIFOT-89" style="edgeStyle=orthogonalEdgeStyle;rounded=0;orthogonalLoop=1;jettySize=auto;html=1;exitX=0.25;exitY=0;exitDx=0;exitDy=0;entryX=1;entryY=0.5;entryDx=0;entryDy=0;endArrow=oval;endFill=1;dashed=1;dashPattern=1 2;" edge="1" parent="1" source="zuOBPA3GGNfVyxOtIFOT-2" target="zuOBPA3GGNfVyxOtIFOT-32">
          <mxGeometry relative="1" as="geometry" />
        </mxCell>
        <mxCell id="zuOBPA3GGNfVyxOtIFOT-90" style="edgeStyle=orthogonalEdgeStyle;rounded=0;orthogonalLoop=1;jettySize=auto;html=1;exitX=0;exitY=0.75;exitDx=0;exitDy=0;entryX=1;entryY=0.5;entryDx=0;entryDy=0;endArrow=none;endFill=0;dashed=1;dashPattern=1 2;" edge="1" parent="1" source="zuOBPA3GGNfVyxOtIFOT-2" target="zuOBPA3GGNfVyxOtIFOT-28">
          <mxGeometry relative="1" as="geometry" />
        </mxCell>
        <mxCell id="zuOBPA3GGNfVyxOtIFOT-2" value="PROFESOR" style="whiteSpace=wrap;html=1;align=center;fillColor=#f5f5f5;fontColor=#333333;strokeColor=#666666;" vertex="1" parent="1">
          <mxGeometry x="178.37" y="488" width="100" height="40" as="geometry" />
        </mxCell>
        <mxCell id="zuOBPA3GGNfVyxOtIFOT-3" value="" style="edgeStyle=orthogonalEdgeStyle;rounded=0;orthogonalLoop=1;jettySize=auto;html=1;endArrow=none;endFill=0;" edge="1" parent="1" source="zuOBPA3GGNfVyxOtIFOT-4">
          <mxGeometry relative="1" as="geometry">
            <mxPoint x="619" y="478" as="targetPoint" />
          </mxGeometry>
        </mxCell>
        <mxCell id="zuOBPA3GGNfVyxOtIFOT-4" value="ASIGNATURA" style="whiteSpace=wrap;html=1;align=center;fillColor=#f5f5f5;fontColor=#333333;strokeColor=#666666;" vertex="1" parent="1">
          <mxGeometry x="571" y="253" width="98" height="40" as="geometry" />
        </mxCell>
        <mxCell id="zuOBPA3GGNfVyxOtIFOT-5" style="edgeStyle=orthogonalEdgeStyle;rounded=0;orthogonalLoop=1;jettySize=auto;html=1;exitX=1;exitY=0.5;exitDx=0;exitDy=0;entryX=0;entryY=0.5;entryDx=0;entryDy=0;endArrow=none;endFill=0;" edge="1" parent="1" source="zuOBPA3GGNfVyxOtIFOT-7" target="zuOBPA3GGNfVyxOtIFOT-11">
          <mxGeometry relative="1" as="geometry" />
        </mxCell>
        <mxCell id="zuOBPA3GGNfVyxOtIFOT-6" style="edgeStyle=orthogonalEdgeStyle;rounded=0;orthogonalLoop=1;jettySize=auto;html=1;exitX=0.75;exitY=1;exitDx=0;exitDy=0;fontFamily=Helvetica;fontSize=14;fontColor=default;startSize=0;entryX=0;entryY=0.5;entryDx=0;entryDy=0;endArrow=none;endFill=0;dashed=1;dashPattern=1 2;" edge="1" parent="1" source="zuOBPA3GGNfVyxOtIFOT-7" target="zuOBPA3GGNfVyxOtIFOT-36">
          <mxGeometry relative="1" as="geometry">
            <mxPoint x="223.66666666666674" y="323" as="targetPoint" />
          </mxGeometry>
        </mxCell>
        <mxCell id="zuOBPA3GGNfVyxOtIFOT-7" value="ALUMNO" style="whiteSpace=wrap;html=1;align=center;fillColor=#f5f5f5;fontColor=#333333;strokeColor=#666666;" vertex="1" parent="1">
          <mxGeometry x="148.87" y="253" width="100" height="40" as="geometry" />
        </mxCell>
        <mxCell id="zuOBPA3GGNfVyxOtIFOT-8" style="edgeStyle=orthogonalEdgeStyle;rounded=0;orthogonalLoop=1;jettySize=auto;html=1;exitX=0.5;exitY=0;exitDx=0;exitDy=0;entryX=0.5;entryY=0;entryDx=0;entryDy=0;" edge="1" parent="1">
          <mxGeometry relative="1" as="geometry">
            <mxPoint x="39.99999999999999" y="400" as="sourcePoint" />
            <mxPoint x="39.99999999999999" y="400" as="targetPoint" />
          </mxGeometry>
        </mxCell>
        <mxCell id="zuOBPA3GGNfVyxOtIFOT-9" style="edgeStyle=orthogonalEdgeStyle;rounded=0;orthogonalLoop=1;jettySize=auto;html=1;exitX=1;exitY=0.5;exitDx=0;exitDy=0;entryX=0;entryY=0.5;entryDx=0;entryDy=0;endArrow=none;endFill=0;" edge="1" parent="1" source="zuOBPA3GGNfVyxOtIFOT-11" target="zuOBPA3GGNfVyxOtIFOT-4">
          <mxGeometry relative="1" as="geometry" />
        </mxCell>
        <mxCell id="zuOBPA3GGNfVyxOtIFOT-10" style="edgeStyle=orthogonalEdgeStyle;rounded=0;orthogonalLoop=1;jettySize=auto;html=1;exitX=0.5;exitY=0;exitDx=0;exitDy=0;dashed=1;dashPattern=1 2;endArrow=none;endFill=0;" edge="1" parent="1" source="zuOBPA3GGNfVyxOtIFOT-11" target="zuOBPA3GGNfVyxOtIFOT-60">
          <mxGeometry relative="1" as="geometry" />
        </mxCell>
        <mxCell id="zuOBPA3GGNfVyxOtIFOT-85" style="edgeStyle=orthogonalEdgeStyle;rounded=0;orthogonalLoop=1;jettySize=auto;html=1;exitX=0;exitY=0;exitDx=0;exitDy=0;entryX=1;entryY=1;entryDx=0;entryDy=0;endArrow=none;endFill=0;dashed=1;dashPattern=1 2;" edge="1" parent="1" source="zuOBPA3GGNfVyxOtIFOT-11" target="zuOBPA3GGNfVyxOtIFOT-84">
          <mxGeometry relative="1" as="geometry" />
        </mxCell>
        <mxCell id="zuOBPA3GGNfVyxOtIFOT-11" value="&lt;font style=&quot;font-size: 12px;&quot;&gt;MATRICULA&lt;br&gt;N:N&lt;/font&gt;" style="shape=rhombus;perimeter=rhombusPerimeter;whiteSpace=wrap;html=1;align=center;verticalAlign=middle;fillColor=#d5e8d4;strokeColor=#82b366;" vertex="1" parent="1">
          <mxGeometry x="390.37" y="238" width="110" height="70" as="geometry" />
        </mxCell>
        <mxCell id="zuOBPA3GGNfVyxOtIFOT-12" style="rounded=0;orthogonalLoop=1;jettySize=auto;html=1;exitX=0;exitY=0.5;exitDx=0;exitDy=0;strokeColor=none;endArrow=none;endFill=0;shadow=1;" edge="1" parent="1">
          <mxGeometry relative="1" as="geometry">
            <mxPoint x="185.13" y="497" as="targetPoint" />
            <mxPoint x="153.3699999999999" y="487" as="sourcePoint" />
          </mxGeometry>
        </mxCell>
        <mxCell id="zuOBPA3GGNfVyxOtIFOT-14" value="(1, N)" style="text;strokeColor=none;fillColor=none;spacingLeft=4;spacingRight=4;overflow=hidden;rotatable=0;points=[[0,0.5],[1,0.5]];portConstraint=eastwest;fontSize=12;whiteSpace=wrap;html=1;" vertex="1" parent="1">
          <mxGeometry x="528.25" y="253" width="50" height="30" as="geometry" />
        </mxCell>
        <mxCell id="zuOBPA3GGNfVyxOtIFOT-16" style="edgeStyle=orthogonalEdgeStyle;rounded=0;orthogonalLoop=1;jettySize=auto;html=1;exitX=0;exitY=0.5;exitDx=0;exitDy=0;entryX=1;entryY=0.5;entryDx=0;entryDy=0;endArrow=none;endFill=0;startArrow=none;startFill=0;strokeColor=none;" edge="1" parent="1">
          <mxGeometry relative="1" as="geometry">
            <mxPoint x="81" y="288" as="sourcePoint" />
            <mxPoint x="131" y="288" as="targetPoint" />
          </mxGeometry>
        </mxCell>
        <mxCell id="zuOBPA3GGNfVyxOtIFOT-19" style="edgeStyle=orthogonalEdgeStyle;rounded=0;orthogonalLoop=1;jettySize=auto;html=1;exitDx=0;exitDy=0;entryX=0.75;entryY=0;entryDx=0;entryDy=0;dashed=1;dashPattern=1 2;endArrow=none;endFill=0;" edge="1" parent="1" source="zuOBPA3GGNfVyxOtIFOT-47" target="zuOBPA3GGNfVyxOtIFOT-4">
          <mxGeometry relative="1" as="geometry" />
        </mxCell>
        <mxCell id="zuOBPA3GGNfVyxOtIFOT-20" value="cod_asignatura" style="ellipse;whiteSpace=wrap;html=1;align=center;fontStyle=4;" vertex="1" parent="1">
          <mxGeometry x="680" y="213" width="100" height="40" as="geometry" />
        </mxCell>
        <mxCell id="zuOBPA3GGNfVyxOtIFOT-21" style="edgeStyle=orthogonalEdgeStyle;rounded=0;orthogonalLoop=1;jettySize=auto;html=1;exitX=0;exitY=0.5;exitDx=0;exitDy=0;entryX=0.5;entryY=1;entryDx=0;entryDy=0;dashed=1;dashPattern=1 2;endArrow=none;endFill=0;" edge="1" parent="1" source="zuOBPA3GGNfVyxOtIFOT-22">
          <mxGeometry relative="1" as="geometry">
            <mxPoint x="194.8699999999999" y="293" as="targetPoint" />
          </mxGeometry>
        </mxCell>
        <mxCell id="zuOBPA3GGNfVyxOtIFOT-22" value="nombre" style="ellipse;whiteSpace=wrap;html=1;align=center;" vertex="1" parent="1">
          <mxGeometry x="258.13" y="353" width="100" height="40" as="geometry" />
        </mxCell>
        <mxCell id="zuOBPA3GGNfVyxOtIFOT-26" style="edgeStyle=orthogonalEdgeStyle;rounded=0;orthogonalLoop=1;jettySize=auto;html=1;exitDx=0;exitDy=0;entryX=0.5;entryY=0;entryDx=0;entryDy=0;endArrow=none;endFill=0;dashed=1;dashPattern=1 2;" edge="1" parent="1">
          <mxGeometry relative="1" as="geometry">
            <mxPoint x="144.63" y="542" as="sourcePoint" />
            <mxPoint x="144.63" y="542" as="targetPoint" />
          </mxGeometry>
        </mxCell>
        <mxCell id="zuOBPA3GGNfVyxOtIFOT-28" value="nombre" style="ellipse;whiteSpace=wrap;html=1;align=center;" vertex="1" parent="1">
          <mxGeometry x="48.870000000000005" y="495" width="100" height="40" as="geometry" />
        </mxCell>
        <mxCell id="zuOBPA3GGNfVyxOtIFOT-32" value="dni_profesor" style="ellipse;whiteSpace=wrap;html=1;align=center;fontStyle=4" vertex="1" parent="1">
          <mxGeometry x="48.87" y="448" width="100" height="40" as="geometry" />
        </mxCell>
        <mxCell id="zuOBPA3GGNfVyxOtIFOT-36" value="dni_alumno" style="ellipse;whiteSpace=wrap;html=1;align=center;fontStyle=4;" vertex="1" parent="1">
          <mxGeometry x="258.25" y="303" width="100" height="40" as="geometry" />
        </mxCell>
        <mxCell id="zuOBPA3GGNfVyxOtIFOT-38" value="" style="shape=waypoint;sketch=0;fillStyle=solid;size=6;pointerEvents=1;points=[];fillColor=none;resizable=0;rotatable=0;perimeter=centerPerimeter;snapToPoint=1;" vertex="1" parent="1">
          <mxGeometry x="249" y="313" width="20" height="20" as="geometry" />
        </mxCell>
        <mxCell id="zuOBPA3GGNfVyxOtIFOT-87" style="edgeStyle=orthogonalEdgeStyle;rounded=0;orthogonalLoop=1;jettySize=auto;html=1;exitX=0;exitY=0.5;exitDx=0;exitDy=0;entryX=1;entryY=0.5;entryDx=0;entryDy=0;endArrow=none;endFill=0;" edge="1" parent="1" source="zuOBPA3GGNfVyxOtIFOT-42" target="zuOBPA3GGNfVyxOtIFOT-2">
          <mxGeometry relative="1" as="geometry" />
        </mxCell>
        <mxCell id="zuOBPA3GGNfVyxOtIFOT-92" style="edgeStyle=orthogonalEdgeStyle;rounded=0;orthogonalLoop=1;jettySize=auto;html=1;exitX=1;exitY=0.5;exitDx=0;exitDy=0;entryX=0;entryY=0.5;entryDx=0;entryDy=0;endArrow=oval;endFill=1;dashed=1;dashPattern=1 2;" edge="1" parent="1" source="zuOBPA3GGNfVyxOtIFOT-42" target="zuOBPA3GGNfVyxOtIFOT-91">
          <mxGeometry relative="1" as="geometry" />
        </mxCell>
        <mxCell id="zuOBPA3GGNfVyxOtIFOT-42" value="IMPARTE&lt;br&gt;1:N" style="shape=rhombus;perimeter=rhombusPerimeter;whiteSpace=wrap;html=1;align=center;fillColor=#d5e8d4;strokeColor=#82b366;" vertex="1" parent="1">
          <mxGeometry x="565" y="468" width="110" height="80" as="geometry" />
        </mxCell>
        <mxCell id="zuOBPA3GGNfVyxOtIFOT-46" value="" style="edgeStyle=orthogonalEdgeStyle;rounded=0;orthogonalLoop=1;jettySize=auto;html=1;exitX=0;exitY=0.5;exitDx=0;exitDy=0;entryDx=0;entryDy=0;dashed=1;dashPattern=1 2;endArrow=none;endFill=0;" edge="1" parent="1" source="zuOBPA3GGNfVyxOtIFOT-20" target="zuOBPA3GGNfVyxOtIFOT-47">
          <mxGeometry relative="1" as="geometry">
            <mxPoint x="680" y="233" as="sourcePoint" />
            <mxPoint x="645" y="253" as="targetPoint" />
          </mxGeometry>
        </mxCell>
        <mxCell id="zuOBPA3GGNfVyxOtIFOT-47" value="" style="shape=waypoint;sketch=0;fillStyle=solid;size=6;pointerEvents=1;points=[];fillColor=none;resizable=0;rotatable=0;perimeter=centerPerimeter;snapToPoint=1;" vertex="1" parent="1">
          <mxGeometry x="669" y="223" width="20" height="20" as="geometry" />
        </mxCell>
        <mxCell id="zuOBPA3GGNfVyxOtIFOT-48" value="(1, N)" style="text;strokeColor=none;fillColor=none;spacingLeft=4;spacingRight=4;overflow=hidden;rotatable=0;points=[[0,0.5],[1,0.5]];portConstraint=eastwest;fontSize=12;whiteSpace=wrap;html=1;" vertex="1" parent="1">
          <mxGeometry x="571" y="293" width="50" height="30" as="geometry" />
        </mxCell>
        <mxCell id="zuOBPA3GGNfVyxOtIFOT-58" style="edgeStyle=orthogonalEdgeStyle;rounded=0;orthogonalLoop=1;jettySize=auto;html=1;exitX=0.5;exitY=1;exitDx=0;exitDy=0;dashed=1;dashPattern=1 2;endArrow=none;endFill=0;" edge="1" parent="1" source="zuOBPA3GGNfVyxOtIFOT-59" target="zuOBPA3GGNfVyxOtIFOT-60">
          <mxGeometry relative="1" as="geometry" />
        </mxCell>
        <mxCell id="zuOBPA3GGNfVyxOtIFOT-59" value="fecha" style="ellipse;whiteSpace=wrap;html=1;align=center;fontStyle=4;" vertex="1" parent="1">
          <mxGeometry x="395.37" y="150" width="100" height="40" as="geometry" />
        </mxCell>
        <mxCell id="zuOBPA3GGNfVyxOtIFOT-60" value="" style="shape=waypoint;sketch=0;fillStyle=solid;size=6;pointerEvents=1;points=[];fillColor=none;resizable=0;rotatable=0;perimeter=centerPerimeter;snapToPoint=1;" vertex="1" parent="1">
          <mxGeometry x="435.37" y="182" width="20" height="20" as="geometry" />
        </mxCell>
        <mxCell id="zuOBPA3GGNfVyxOtIFOT-80" value="" style="rounded=0;orthogonalLoop=1;jettySize=auto;html=1;exitX=0;exitY=0.5;exitDx=0;exitDy=0;strokeColor=none;endArrow=none;endFill=0;shadow=1;" edge="1" parent="1">
          <mxGeometry relative="1" as="geometry">
            <mxPoint x="153.3699999999999" y="477.5589123867069" as="targetPoint" />
            <mxPoint x="165.13" y="482" as="sourcePoint" />
          </mxGeometry>
        </mxCell>
        <mxCell id="zuOBPA3GGNfVyxOtIFOT-82" value="(0, 1)" style="text;strokeColor=none;fillColor=none;spacingLeft=4;spacingRight=4;overflow=hidden;rotatable=0;points=[[0,0.5],[1,0.5]];portConstraint=eastwest;fontSize=12;whiteSpace=wrap;html=1;" vertex="1" parent="1">
          <mxGeometry x="278.37" y="480" width="50" height="30" as="geometry" />
        </mxCell>
        <mxCell id="zuOBPA3GGNfVyxOtIFOT-83" value="(1, N)" style="text;strokeColor=none;fillColor=none;spacingLeft=4;spacingRight=4;overflow=hidden;rotatable=0;points=[[0,0.5],[1,0.5]];portConstraint=eastwest;fontSize=12;whiteSpace=wrap;html=1;" vertex="1" parent="1">
          <mxGeometry x="248.87" y="253" width="50" height="30" as="geometry" />
        </mxCell>
        <mxCell id="zuOBPA3GGNfVyxOtIFOT-84" value="nota" style="ellipse;whiteSpace=wrap;html=1;align=center;" vertex="1" parent="1">
          <mxGeometry x="290.37" y="150" width="100" height="40" as="geometry" />
        </mxCell>
        <mxCell id="zuOBPA3GGNfVyxOtIFOT-91" value="fecha_imparte" style="ellipse;whiteSpace=wrap;html=1;align=center;fontStyle=4;" vertex="1" parent="1">
          <mxGeometry x="700" y="488" width="100" height="40" as="geometry" />
        </mxCell>
      </root>
    </mxGraphModel>
  </diagram>
</mxfile>
